<svg xmlns="http://www.w3.org/2000/svg" width="19.202" height="24" viewBox="0 0 19.202 24"><g transform="translate(-108.871)"><path d="M131.842,240.066a5.352,5.352,0,0,0,1.227-3.832,5.253,5.253,0,0,0-3.474,1.815,5.1,5.1,0,0,0-1.251,3.715A4.341,4.341,0,0,0,131.842,240.066Z" transform="translate(-9.903 -236.234)"/><path d="M124.908,254.99a5.083,5.083,0,0,1,.567-2.415,5.741,5.741,0,0,1,1.979-2.157,5.479,5.479,0,0,0-4.314-2.377c-1.837-.189-3.582,1.1-4.513,1.1s-2.369-1.074-3.891-1.045a5.758,5.758,0,0,0-4.879,3.01,7.222,7.222,0,0,0-.714,1.81c-.876,3.482.5,7.764,2.209,10.284.991,1.458,2.171,3.1,3.721,3.037,1.5-.06,2.058-.983,3.864-.983s2.314.983,3.894.953c1.6-.029,2.625-1.484,3.607-2.948a13.412,13.412,0,0,0,1.634-3.414A5.287,5.287,0,0,1,124.908,254.99Z" transform="translate(0 -242.238)"/></g></svg>