<svg xmlns="http://www.w3.org/2000/svg" xmlns:xlink="http://www.w3.org/1999/xlink" width="658" height="223.791" viewBox="0 0 658 223.791"><defs><style>.a{mix-blend-mode:multiply;isolation:isolate;fill:url(#a);}.b{fill:url(#b);}.c{fill:#ade68f;}.d,.f{fill:none;stroke:#88bd6d;stroke-linecap:round;stroke-linejoin:round;}.d{stroke-width:0.654px;}.e{fill:url(#c);}.f{stroke-width:0.75px;}.g{fill:#88bd6d;}.h{fill:#a87c56;}.i{fill:#ba8a60;}.j{fill:url(#d);}.k{fill:#d68e4f;}.l{fill:#e3a874;}.m{fill:url(#e);}.n{fill:url(#f);}.o,.u{fill:#874732;}.o,.x{opacity:0.31;}.p{fill:url(#g);}.q,.z{fill:#ff7c4f;}.q,.y{opacity:0.5;}.r{fill:url(#h);}.s{fill:url(#i);}.t{fill:#fffbf7;}.v{opacity:0.55;}.w{fill:#ff915e;}</style><radialGradient id="a" cx="0.497" cy="0.059" r="10.833" gradientTransform="translate(0.476 0.056) scale(0.045 0.049)" gradientUnits="objectBoundingBox"><stop offset="0" stop-color="#e8e8d0"/><stop offset="1" stop-color="#fff"/></radialGradient><linearGradient id="b" x1="0.253" y1="-0.023" x2="0.448" y2="0.787" gradientUnits="objectBoundingBox"><stop offset="0" stop-color="#a1d685"/><stop offset="1" stop-color="#71c782"/></linearGradient><linearGradient id="c" x1="0.502" y1="0.246" x2="0.659" y2="0.851" gradientUnits="objectBoundingBox"><stop offset="0.113" stop-color="#a1d685"/><stop offset="1" stop-color="#71c782"/></linearGradient><linearGradient id="d" y1="0.5" x2="1" y2="0.5" gradientUnits="objectBoundingBox"><stop offset="0" stop-color="#805e41"/><stop offset="1" stop-color="#a87c56"/></linearGradient><linearGradient id="e" x1="0.514" y1="0.729" x2="0.345" y2="0.053" gradientUnits="objectBoundingBox"><stop offset="0" stop-color="#ffda5e"/><stop offset="1" stop-color="#e89540"/></linearGradient><linearGradient id="f" x1="0.5" y1="0.553" x2="0.5" y2="1.425" xlink:href="#e"/><linearGradient id="g" x1="1.064" y1="-1.24" x2="1.064" y2="0.25" xlink:href="#e"/><linearGradient id="h" x1="16.837" y1="1.702" x2="16.837" y2="3.241" xlink:href="#e"/><linearGradient id="i" x1="0.466" y1="0.367" x2="0.466" y2="1.879" xlink:href="#e"/></defs><g transform="translate(-1111 -533.303)"><rect class="a" width="658" height="29.546" transform="translate(1111 674.159)"/><g transform="translate(1227.347 570.832)"><g transform="translate(26.45 16.166)"><g transform="translate(0 2.475)"><path class="b" d="M136.695,299.236s-3.6-43.289,2.816-53.137c5.967-9.164,22.059-4.691,18.9,10.076-2.054,9.6-11.324,41.907-11.324,41.907Z" transform="translate(-135.69 -241.344)"/><g transform="translate(0 0.006)"><path class="c" d="M143.049,247.067a10.355,10.355,0,0,1,9.788-4.7,10.475,10.475,0,0,0-13.326,3.725c-6.411,9.848-2.816,53.137-2.816,53.137l3.434-.381C139.588,291.5,137.306,255.888,143.049,247.067Z" transform="translate(-135.69 -241.348)"/></g></g><line class="d" x1="1.795" y1="3.54" transform="translate(5.461 1.599)"/><line class="d" y1="3.953" x2="0.358" transform="translate(14.034)"/><line class="d" y1="3.53" x2="1.815" transform="translate(19.368 3.412)"/><line class="d" y1="2.771" x2="2.841" transform="translate(21.806 8.911)"/><line class="d" x2="3.815" y2="1.094" transform="translate(18.364 25.873)"/><line class="d" y1="1.237" x2="3.771" transform="translate(17.121 31.356)"/><line class="d" x2="2.697" y2="0.401" transform="translate(16.041 36.981)"/><line class="d" y1="1.559" x2="3.091" transform="translate(21.637 15.043)"/><line class="d" y1="0.056" x2="3.461" transform="translate(19.899 21.448)"/><line class="d" x1="3.295" y1="2.213" transform="translate(2.029 6.992)"/></g><g transform="translate(0 0)"><g transform="translate(2.265 2.847)"><path class="e" d="M134.5,299.654s-17.13-46.8-13.026-59.643c3.817-11.951,22.978-11.893,23.968,5.406.643,11.246.2,49.8.2,49.8Z" transform="translate(-120.843 -231.649)"/><g transform="translate(0 0.011)"><path class="c" d="M125.686,240.007a11.882,11.882,0,0,1,9.4-8.169,12.014,12.014,0,0,0-13.61,8.169c-4.1,12.844,13.026,59.643,13.026,59.643l3.683-1.466C135.357,290.218,122.012,251.508,125.686,240.007Z" transform="translate(-120.843 -231.655)"/></g></g><line class="f" x1="3.8" transform="translate(1.525 28.569)"/><line class="f" x1="4.537" y2="0.39" transform="translate(2.265 36.459)"/><line class="f" x1="4.247" y2="1.642" transform="translate(4.678 43.739)"/><line class="f" x1="3.061" y1="3.371" transform="translate(3.003 4.482)"/><line class="f" x1="0.805" y1="4.482" transform="translate(12.397)"/><line class="f" y1="4.456" x2="0.935" transform="translate(20.011 1.711)"/><line class="f" y1="3.929" x2="2.301" transform="translate(24.148 6.742)"/><line class="f" x2="4.553" y2="0.051" transform="translate(24.653 27.417)"/><line class="f" y1="2.514" x2="3.797" transform="translate(25.319 32.715)"/><line class="f" y1="0.375" x2="3.105" transform="translate(25.457 40.036)"/><line class="f" y1="2.664" x2="2.945" transform="translate(25.457 13.502)"/><line class="f" y1="1.113" x2="3.812" transform="translate(25.023 21.004)"/><line class="f" x1="4.318" y1="1.447" transform="translate(0.844 11.492)"/><line class="f" x1="4.53" y2="0.465" transform="translate(0 18.873)"/><ellipse class="g" cx="0.831" cy="0.831" rx="0.831" ry="0.831" transform="translate(8.926 12.009)"/><path class="g" d="M131.541,240.7a1.388,1.388,0,1,1-1.388-1.388A1.387,1.387,0,0,1,131.541,240.7Z" transform="translate(-113.596 -223.98)"/><path class="g" d="M135.542,250.91a2.715,2.715,0,1,1-.582-3.8A2.715,2.715,0,0,1,135.542,250.91Z" transform="translate(-112.418 -219.406)"/><path class="g" d="M131.711,256.837a1.545,1.545,0,1,1-.08-2.429A1.744,1.744,0,0,1,131.711,256.837Z" transform="translate(-113.546 -214.638)"/><ellipse class="g" cx="1.185" cy="1.185" rx="1.185" ry="1.185" transform="translate(12.397 21.004)"/></g><g transform="translate(0.833 58.357)"><path class="h" d="M120.843,268.376l4,44.884h5.972l-.421-2.337h10.817l.2,2.337h9.246l.5-2.337h8.48l-.124,2.337h5.4l4-44.884Z" transform="translate(-119.41 -264.061)"/><path class="i" d="M128.959,268.376h-8.116l4,44.884h5.972l-.421-2.337H133.5Z" transform="translate(-119.41 -264.061)"/><path class="j" d="M121.268,273.145l46.973,2.808.676-7.578H120.843Z" transform="translate(-119.41 -264.061)"/><path class="k" d="M170.174,273.9l.728-8.171H119.964l.728,8.171Z" transform="translate(-119.964 -265.727)"/><path class="l" d="M127.976,265.727h-8.013l.728,8.171h8.258Z" transform="translate(-119.964 -265.727)"/></g></g><g transform="translate(1346.109 533.303)"><g transform="translate(187.67 98.955)"><path class="m" d="M359.554,392.271a57.989,57.989,0,0,1-50.01-21.948,8.951,8.951,0,0,1,13.958-11.21,40.4,40.4,0,0,0,42.277,14.005c13.357-3.551,22.491-13,24.432-25.268,3.1-19.6-6.781-34.95-15.5-48.495-4.87-7.563-9.076-14.1-10.6-20.814a8.952,8.952,0,0,1,17.461-3.958c.824,3.639,4.4,9.2,8.19,15.082,9.41,14.618,22.3,34.639,18.13,60.984-3.035,19.187-17.411,34.426-37.512,39.772A60.177,60.177,0,0,1,359.554,392.271Z" transform="translate(-307.572 -267.61)"/></g><path class="n" d="M447.7,263.386c-20.66-35.427-73.924-36.719-98.457-27.035S290.693,259.76,283.5,259.27c-32.707-2.222-75.546,35.186-75.546,35.186s-15.589,9.684-15.589,22.919,7.614,16.786,15.589,16.786H352.207c-4.471,1.875-8.819,4.341-7.965,6.618,1.937,5.175,12.536,5.822,22.673,3.642,9.044-1.943,68.068-2.385,80.948-18.169C462.712,308.056,457.128,279.553,447.7,263.386Z" transform="translate(-192.361 -191.566)"/><path class="o" d="M298.779,244.857l-96.848,41s6.967,21.44,37.684,26.654l-.031,0c6.837.787,12.862,7.027,12.567,13.049h7.68a18.789,18.789,0,0,1,14.194-13.994l.013-.018C322.053,301.449,298.779,244.857,298.779,244.857Z" transform="translate(-186.342 -182.965)"/><g transform="translate(3.013 0)"><g transform="translate(0 18.23)"><path class="p" d="M207.642,271.159S193.6,246.2,194.231,222.632a4.681,4.681,0,0,1,5.569-4.491c6.84,1.334,19.3,5.579,30.355,19.089Z" transform="translate(-194.21 -218.053)"/><path class="q" d="M206.59,255.128s-8.353-14.849-7.98-28.874a2.787,2.787,0,0,1,3.315-2.673c4.069.795,11.486,3.321,18.061,11.36Z" transform="translate(-191.451 -214.61)"/></g><g transform="translate(56.003)"><path class="r" d="M264.556,258.273s.443-28.632-11.345-49.052a4.683,4.683,0,0,0-7.037-1.293c-5.377,4.434-14.307,14.106-17.583,31.252Z" transform="translate(-228.591 -206.861)"/><path class="q" d="M254.328,243.941s.262-17.037-6.752-29.187a2.784,2.784,0,0,0-4.186-.769c-3.2,2.637-8.514,8.394-10.463,18.594Z" transform="translate(-225.864 -202.781)"/></g></g><path class="s" d="M235.492,224.68c-28.348,7.192-43.579,41.813-33.289,70.241s39.589,27.4,56.945,23,43.6-17.47,39.091-47.366S263.84,217.488,235.492,224.68Z" transform="translate(-188.197 -196.485)"/><path class="t" d="M253.747,263.315c1.732,6.82-5.672,8.177-14.651,10.456s-16.133,4.613-17.863-2.207,4.144-14.2,13.123-16.475S252.017,256.494,253.747,263.315Z" transform="translate(-174.392 -176.954)"/><g transform="translate(32.554 59.146)"><path class="u" d="M248.075,243.2a17.224,17.224,0,0,0-14.919,6.936c-1.606,2.166,1.489,5.072,3.116,2.875a13.317,13.317,0,0,1,11.92-5.573C250.92,247.61,250.779,243.37,248.075,243.2Z" transform="translate(-199.541 -243.171)"/><path class="u" d="M213.387,251.6a17.23,17.23,0,0,1,16.421-1.016c2.443,1.14,1.109,5.17-1.368,4.015a13.309,13.309,0,0,0-13.134.784C212.986,256.832,211.089,253.038,213.387,251.6Z" transform="translate(-212.346 -239.521)"/></g><g transform="translate(53.85 79.724)"><path class="u" d="M234.461,265.753c-4.781,1.212-8.752-1.344-9.026-4.37s3.225-3.725,6.745-4.62,6.929-1.945,8.132.845S239.243,264.54,234.461,265.753Z" transform="translate(-225.42 -255.804)"/></g><g class="v" transform="translate(26.257 66.388)"><path class="w" d="M228.283,262.932a10.055,10.055,0,1,1-12.219-7.273A10.052,10.052,0,0,1,228.283,262.932Z" transform="translate(-208.48 -242.755)"/><path class="w" d="M258.757,255.2a10.055,10.055,0,1,1-12.219-7.273A10.054,10.054,0,0,1,258.757,255.2Z" transform="translate(-189.315 -247.617)"/></g><g transform="translate(18.591 70.451)"><g transform="translate(0 16.827)"><path class="u" d="M204.887,267.953a.884.884,0,0,1-.709-.117.894.894,0,0,1-.259-1.236c4.04-6.2,12.021-6.165,12.364-6.157a.891.891,0,0,1,.881.9.867.867,0,0,1-.906.881c-.065,0-7.348-.013-10.842,5.349A.878.878,0,0,1,204.887,267.953Z" transform="translate(-203.774 -260.442)"/><g transform="translate(6.431 5.383)"><path class="u" d="M208.836,273.122a.892.892,0,0,1-1.057-1.179c1.914-5.123,7.542-7.978,7.781-8.1a.876.876,0,0,1,1.2.4.9.9,0,0,1-.4,1.2c-.052.024-5.24,2.667-6.9,7.125A.889.889,0,0,1,208.836,273.122Z" transform="translate(-207.722 -263.746)"/></g></g><g transform="translate(70.648)"><path class="u" d="M261.2,253.243a.88.88,0,0,1-.645-.078c-5.649-3.067-12.017.43-12.082.466a.881.881,0,0,1-1.215-.344.891.891,0,0,1,.344-1.215c.3-.169,7.307-4,13.8-.481a.893.893,0,0,1-.205,1.652Z" transform="translate(-247.145 -250.111)"/><g transform="translate(0.661 7.616)"><path class="u" d="M258.745,259.739a.881.881,0,0,1-.8-.192c-3.584-3.124-9.407-2.973-9.466-2.97a.893.893,0,0,1-.924-.862.866.866,0,0,1,.862-.925c.267-.01,6.579-.182,10.7,3.413a.884.884,0,0,1,.085,1.258A.865.865,0,0,1,258.745,259.739Z" transform="translate(-247.55 -254.787)"/></g></g></g><g class="x" transform="translate(58.753 99.459)"><path class="u" d="M236.863,272.825a18.659,18.659,0,0,1-7.666.212.969.969,0,0,1,.4-1.9c.073.016,7.433,1.474,11.718-2.926a.968.968,0,1,1,1.388,1.349A12.224,12.224,0,0,1,236.863,272.825Z" transform="translate(-228.429 -267.92)"/></g><g class="y" transform="translate(122.542 39.664)"><path class="z" d="M288.393,236.466c3.629,6.859,8.065,16.946,9.754,27.789,2.375,15.24,13.005,11.723,16.115,6.7,2.422-3.913,4.589-25.6.854-39.674-10.112.466-19.35,2.274-26.268,5Z" transform="translate(-254.507 -231.166)"/><path class="z" d="M308.128,231.211a86.307,86.307,0,0,1,3.531,23.344c-.036,15.424,11.013,13.611,14.869,9.137,2.372-2.751,6.327-16.486,7.159-29.275A103.626,103.626,0,0,0,308.128,231.211Z" transform="translate(-242.095 -231.211)"/><path class="z" d="M286.275,275.007c5.648,14.354,15.252,8.6,17.19,3.018,1.626-4.688-1.547-29.461-9.484-41.741-8.617,3.409-17.837,7.042-26.392,10.259C272.693,252.032,281.361,262.518,286.275,275.007Z" transform="translate(-267.59 -228.02)"/></g><path class="o" d="M301.73,314.529s19.876-8.029,23.668-15.656c2.6-5.222,3.712-30.116,17.84-36.476,0,0-17.758,0-30.559,24.37-9.633,18.347-30.86,26.955-40.06,27.762Z" transform="translate(-141.884 -171.934)"/><g class="y" transform="translate(209.18 184.387)"><path class="z" d="M353.8,330.867a39.088,39.088,0,0,1-6.594,2.468,41.144,41.144,0,0,1-8.539,1.288,36.4,36.4,0,0,1-1.564,18.027c1.288-.015,2.582-.064,3.877-.163a60.322,60.322,0,0,0,10.827-1.85c.7-.187,1.381-.414,2.07-.626A55.25,55.25,0,0,0,353.8,330.867Z" transform="translate(-310.509 -313.258)"/><path class="z" d="M320.777,347.594a57.228,57.228,0,0,0,15.019,5.121,40.167,40.167,0,0,0,4.61-17.439,39.372,39.372,0,0,1-15.84-6.193C325.265,333.473,325.449,340.984,320.777,347.594Z" transform="translate(-320.777 -314.38)"/><path class="z" d="M370.445,339.826a61.055,61.055,0,0,0-9.207-19.769,29.636,29.636,0,0,1-9.754,13.548,37.536,37.536,0,0,1,4.929,18.2A50.275,50.275,0,0,0,370.445,339.826Z" transform="translate(-301.465 -320.057)"/></g><g class="x" transform="translate(47.048 133.236)"><path class="u" d="M222.213,291.23a.968.968,0,1,0,0,1.937c.213,0,4.794.094,5.5,3.228h1.971C229.133,292.365,224.67,291.23,222.213,291.23Z" transform="translate(-221.244 -287.036)"/><path class="u" d="M234.412,298c-.1-6.631-7.822-9.2-8.151-9.3a.981.981,0,0,0-1.218.629.97.97,0,0,0,.627,1.217c.065.02,6.71,2.222,6.8,7.47h1.934Z" transform="translate(-218.884 -288.655)"/></g><g class="x" transform="translate(76.428 133.958)"><path class="u" d="M241.217,297.736a10.066,10.066,0,0,1,5.5-6.773.969.969,0,0,0-.753-1.785,12.063,12.063,0,0,0-6.683,8.558Z" transform="translate(-239.28 -289.099)"/><path class="u" d="M248.183,293.041a.968.968,0,0,0-.95-1.688,9.984,9.984,0,0,0-4.131,5.042h2.126A8.193,8.193,0,0,1,248.183,293.041Z" transform="translate(-236.876 -287.758)"/></g><g class="x" transform="translate(152.272 144.741)"><path class="u" d="M297.458,297.33a17.286,17.286,0,0,0-7.752,6.148c.679.138,1.365.27,2.113.352a16.1,16.1,0,0,1,6.3-4.678.966.966,0,0,0,.575-1.241A.983.983,0,0,0,297.458,297.33Z" transform="translate(-283.41 -294.738)"/><path class="u" d="M298.087,296.495a.964.964,0,0,0-1.139-.761,30.46,30.46,0,0,0-11.108,5.064,5.361,5.361,0,0,0,1.233,1.5,29.073,29.073,0,0,1,10.254-4.66A.968.968,0,0,0,298.087,296.495Z" transform="translate(-285.841 -295.718)"/></g></g></g></svg>