<svg id="Layer_1" data-name="Layer 1" xmlns="http://www.w3.org/2000/svg" viewBox="0 0 39.9 108.81"><defs><style>.cls-1{fill:#118ab2;}</style></defs><path class="cls-1" d="M29.71-53.44v24.76l-8-3.43-1.53-.76-1.52.57-8,3.62V-53.44h19m7.62-11.42h-19A3.82,3.82,0,0,0,14.48-61h19a3.82,3.82,0,0,1,3.81,3.81v24.75l3.81,1.9V-61A3.82,3.82,0,0,0,37.33-64.86Zm-7.62,7.62h-19a3.82,3.82,0,0,0-3.81,3.8V-23l13.33-5.71L33.52-23V-53.44A3.81,3.81,0,0,0,29.71-57.24Z" transform="translate(-4.05 64.86)"/><path class="cls-1" d="M39.52,8.48v4.44H30.65V8.48h8.87m-22.17,0v13.3H8.48V8.48h8.87M39.52,26.22v13.3H30.65V26.22h8.87M17.35,35.08v4.44H8.48V35.08h8.87M44,4.05H26.22v13.3H44Zm-22.17,0H4.05V26.22H21.78ZM44,21.78H26.22V44H44ZM21.78,30.65H4.05V44H21.78Z" transform="translate(-4.05 64.86)"/></svg>