<?xml version="1.0" encoding="utf-8"?>
<!-- Generator: Adobe Illustrator 26.0.3, SVG Export Plug-In . SVG Version: 6.00 Build 0)  -->
<svg version="1.1" id="Layer_1" xmlns="http://www.w3.org/2000/svg" xmlns:xlink="http://www.w3.org/1999/xlink" x="0px" y="0px"
	 viewBox="0 0 24 24" style="enable-background:new 0 0 24 24;" xml:space="preserve">
<style type="text/css">
	.st0{fill:none;}
	.st1{fill:#D92323;}
</style>
<path class="st0" d="M0,0h24v24H0V0z"/>
<path class="st1" d="M16.5,3c-1.7,0-3.4,0.8-4.5,2.1C10.9,3.8,9.2,3,7.5,3C4.5,3,2,5.4,2,8.4c0,0,0,0.1,0,0.1
	c0,3.8,3.4,6.9,8.6,11.5l1.4,1.3l1.4-1.3c5.2-4.7,8.6-7.8,8.6-11.5c0-3-2.4-5.5-5.4-5.5C16.6,3,16.5,3,16.5,3z M12.1,18.5L12,18.6
	l-0.1-0.1C7.1,14.2,4,11.4,4,8.5C4,6.6,5.4,5,7.3,5c0.1,0,0.1,0,0.2,0c1.6,0,3,0.9,3.6,2.4h1.9c0.6-1.4,2-2.4,3.6-2.4
	C18.4,5,20,6.4,20,8.3c0,0.1,0,0.1,0,0.2C20,11.4,16.9,14.2,12.1,18.5z"/>
</svg>
