<svg xmlns="http://www.w3.org/2000/svg" width="23.522" height="24" viewBox="0 0 23.522 24"><defs><style>.a{fill:#4285f4;}.b{fill:#34a853;}.c{fill:#fbbc04;}.d{fill:#ea4335;}</style></defs><g transform="translate(-0.003)"><path class="a" d="M83.523,61.44A14.3,14.3,0,0,0,83.316,59H72v4.622h6.481a5.555,5.555,0,0,1-2.4,3.647v3h3.868A11.735,11.735,0,0,0,83.523,61.44Z" transform="translate(-59.998 -49.166)"/><path class="b" d="M18.391,95.483a11.484,11.484,0,0,0,7.953-2.9l-3.868-3A7.278,7.278,0,0,1,11.655,85.78H7.67v3.092a12,12,0,0,0,10.721,6.611Z" transform="translate(-6.389 -71.483)"/><path class="c" d="M5.266,47.355a7.19,7.19,0,0,1,0-4.593V39.67H1.281a12,12,0,0,0,0,10.776Z" transform="translate(0 -33.058)"/><path class="d" d="M18.393,4.746a6.515,6.515,0,0,1,4.6,1.8h0l3.425-3.425A11.53,11.53,0,0,0,18.393,0,12,12,0,0,0,7.671,6.607L11.656,9.7A7.177,7.177,0,0,1,18.393,4.746Z" transform="translate(-6.39 0.005)"/></g></svg>