<svg xmlns="http://www.w3.org/2000/svg" width="70" height="70" viewBox="0 0 70 70"><defs><style>.a{fill:#00c19c;}.b{fill:#fff;}</style></defs><g transform="translate(-1134 -333)"><circle class="a" cx="35" cy="35" r="35" transform="translate(1134 333)"/><g transform="translate(1148 344.76)"><path class="b" d="M37,22.975c-.161,4.493-1.883,13.255-5.459,14.2-3.846,1.018-6.629,1.114-13.286-.336a29.59,29.59,0,0,0-4.167-.341.464.464,0,0,1-.454-.466c0-2.285,0-12.4,0-14.131a.443.443,0,0,1,.18-.365c.9-.644,1.447-2.334,2.424-3.206A39.423,39.423,0,0,1,20.7,15.274c2.116-1.6,2.5-3.624,3.173-5.214.55-1.3,1.457-2.235,2.812-1.629s2.795,3.094,1.082,6.628A23.96,23.96,0,0,0,25.9,18.642c-.152.42-.184,1.086.3,1.056a48,48,0,0,1,8.06.07A3.11,3.11,0,0,1,37,22.975ZM11.854,36.33V20.919a.93.93,0,0,0-.93-.93H5.93a.93.93,0,0,0-.93.93V36.33a.93.93,0,0,0,.93.93h4.994A.93.93,0,0,0,11.854,36.33Z"/></g></g></svg>