<svg id="_1_gym" data-name="1 gym" xmlns="http://www.w3.org/2000/svg" width="22.338" height="22.338" viewBox="0 0 22.338 22.338">
  <path id="Path_68759" data-name="Path 68759" d="M0,0H22.338V22.338H0Z" fill="none"/>
  <path id="Path_68760" data-name="Path 68760" d="M19.284,13.969l1.331-1.331-1.331-1.331L15.961,14.63,7.985,6.654l3.323-3.323L9.976,2,8.646,3.331,7.315,2,5.323,3.992,3.992,2.661,2.661,3.992,3.992,5.323,2,7.315,3.331,8.646,2,9.976l1.331,1.331L6.654,7.985l7.976,7.976-3.323,3.323,1.331,1.331,1.331-1.331L15.3,20.615l1.992-1.992,1.331,1.331,1.331-1.331-1.331-1.331L20.615,15.3Z" transform="translate(-0.138 -0.139)"/>
</svg>
