<svg id="Laundry_Room" data-name="Laundry Room" xmlns="http://www.w3.org/2000/svg" width="18" height="20.002" viewBox="0 0 18 20.002">
  <g id="Group_24328" data-name="Group 24328" transform="translate(-3 -1.998)">
    <path id="Path_68837" data-name="Path 68837" d="M19.56,11.36,13,8.44V7a1,1,0,0,0-1-1h0a1,1,0,1,1,1-1h2a3,3,0,1,0-4,2.82v.63L4.44,11.37A2.4,2.4,0,0,0,3,13.57v.01A2.416,2.416,0,0,0,5.42,16H7v6H17V16h1.58A2.416,2.416,0,0,0,21,13.58v-.01A2.419,2.419,0,0,0,19.56,11.36ZM15,20H9V15h6Zm3.58-6H17V13H7v1H5.42a.424.424,0,0,1-.17-.81l6.75-3,6.75,3A.423.423,0,0,1,18.58,14Z"/>
  </g>
</svg>
