<svg xmlns="http://www.w3.org/2000/svg" width="36.456" height="37.365" viewBox="0 0 36.456 37.365"><defs><style>.a{fill:#008fff;}</style></defs><g transform="translate(-282.165 -5.163)"><path class="a" d="M289.948,42.417a10.5,10.5,0,0,0,1.581.111,19.7,19.7,0,0,0,4.569-.62c3.662-.888,4.479-1.207,5.005-1.483a21.962,21.962,0,0,0,5.458-2.8l0,0c5.952-4.183,9.035-10.509,10.342-13.908h0c.453-1.175.658-1.912.667-1.945.294-1.077.527-2.133.714-3.229h0c.829-4.872.113-8.489-2.128-10.752-2.893-2.919-7.552-2.882-10.953-2.336h0a21.4,21.4,0,0,0-2.852.639c-.692.255-1.419.546-2.22.89h0a30.443,30.443,0,0,0-13.574,10.653h0a25.064,25.064,0,0,0-2.817,5.5,25.96,25.96,0,0,0-1.25,13C282.921,39.478,285.637,41.768,289.948,42.417Zm25.075-33.5c1.625,1.64,2.263,4.256,1.9,7.788l-9.867-9.866C309.584,6.626,312.961,6.832,315.023,8.913ZM302.885,7.6a20.179,20.179,0,0,1,2.174-.5l11.579,11.579c-.165.9-.365,1.778-.608,2.668,0,0-.064.23-.2.625L301.86,7.994C302.211,7.853,302.549,7.723,302.885,7.6ZM300.27,8.667,307.9,16.3l7.325,7.325a29.191,29.191,0,0,1-9.037,12.3l-8.962-8.963-8.966-8.965A28.949,28.949,0,0,1,300.27,8.667Zm-12.917,10.68,17.5,17.5a20.257,20.257,0,0,1-3.865,1.926L285.423,23.207A23.3,23.3,0,0,1,287.353,19.347Zm-3.29,16.49a24.5,24.5,0,0,1,.78-10.948l7.76,7.76.613.612,1.072,1.073,3.752,3.752.717.717.593.593c-.664.207-1.748.5-3.629.956a14.877,14.877,0,0,1-5.534.484c-1.686-.254-5.655-1.243-6.113-4.933A.506.506,0,0,0,284.063,35.837Z"/></g></svg>