<svg xmlns="http://www.w3.org/2000/svg" width="48.448" height="47.184" viewBox="0 0 48.448 47.184"><defs><style>.a{fill:#008fff;}</style></defs><g transform="translate(-194.068 -0.254)"><path class="a" d="M232.142.765a.8.8,0,1,0-1.491.578l2.313,5.973c.009.022.025.038.035.059l-1.7,1.7-2.091-5.567a.8.8,0,1,0-1.5.562l2.312,6.161c.011.028.03.05.043.076l-4.037,4.037a19.091,19.091,0,1,0,1.131,1.131l3.589-3.588a.793.793,0,0,0,.562.334l7.51.825c.03,0,.06.005.089.005a.8.8,0,0,0,.085-1.6l-7.042-.774,2.065-2.065a.884.884,0,0,0,.1.023l7.51.825c.03,0,.059,0,.088,0a.8.8,0,0,0,.087-1.595l-6.347-.7,3.856-3.855a.8.8,0,0,0-1.132-1.131l-3.953,3.954ZM230.6,28.373a17.486,17.486,0,1,1-5.7-12.895l-3.774,3.773a12.158,12.158,0,1,0,1.131,1.131l3.774-3.773A17.4,17.4,0,0,1,230.6,28.373Zm-18.031.566a.8.8,0,0,0,1.131,0l2.464-2.464a3.6,3.6,0,1,1-1.132-1.129l-2.463,2.462A.8.8,0,0,0,212.566,28.939Zm3.613-4.743a5.2,5.2,0,1,0,1.131,1.131l3.811-3.811a10.553,10.553,0,1,1-1.131-1.131Z"/></g></svg>