<svg xmlns="http://www.w3.org/2000/svg" width="43.149" height="34.939" viewBox="0 0 43.149 34.939"><defs><style>.a{fill:#008fff;}</style></defs><g transform="translate(-114.616 -6.376)"><path class="a" d="M138.53,6.376H115.3a.731.731,0,0,0-.685.75V35.458a.73.73,0,0,0,.685.749h17.158v4.316c0,.521.6,1,1.031.647l1.45-1.181,1.068-.871c.09-.073.224-.156.338-.234a1.229,1.229,0,0,1,.185.146c.31.312.692.568,1.029.845l1.581,1.295a.51.51,0,0,0,.77-.068.705.705,0,0,0,.26-.579V36.207h16.91a.6.6,0,0,0,.462-.2.282.282,0,0,0,.024-.025l.012-.014a.723.723,0,0,0,.186-.51V7.126a.73.73,0,0,0-.684-.75H138.53Zm-6.071,28.332H115.986V7.876h16.473ZM138.8,39.03l-2.129-1.747a.612.612,0,0,0-.692,0l-2.151,1.753V7.876H138.8Zm1.37-31.154H156.4V34.708H140.171Z"/><path class="a" d="M119.1,14.919h9.677c.587,0,.588-1,0-1H119.1C118.511,13.919,118.51,14.919,119.1,14.919Z"/><path class="a" d="M119.1,19.123h9.677c.587,0,.588-1,0-1H119.1C118.511,18.123,118.51,19.123,119.1,19.123Z"/><path class="a" d="M119.1,23.326h9.677c.587,0,.588-1,0-1H119.1C118.511,22.326,118.51,23.326,119.1,23.326Z"/><path class="a" d="M119.1,27.53h9.677c.587,0,.588-1,0-1H119.1C118.511,26.53,118.51,27.53,119.1,27.53Z"/><path class="a" d="M153.335,13.919h-9.678c-.587,0-.588,1,0,1h9.678C153.922,14.919,153.924,13.919,153.335,13.919Z"/><path class="a" d="M153.335,18.123h-9.678c-.587,0-.588,1,0,1h9.678C153.922,19.123,153.924,18.123,153.335,18.123Z"/><path class="a" d="M153.335,22.326h-9.678c-.587,0-.588,1,0,1h9.678C153.922,23.326,153.924,22.326,153.335,22.326Z"/><path class="a" d="M153.335,26.53h-9.678c-.587,0-.588,1,0,1h9.678C153.922,27.53,153.924,26.53,153.335,26.53Z"/></g></svg>