<svg xmlns="http://www.w3.org/2000/svg" width="35.141" height="44.583" viewBox="0 0 35.141 44.583"><defs><style>.a{fill:#008fff;}</style></defs><g transform="translate(-39.256 -1.554)"><path class="a" d="M74.4,18.312a15.5,15.5,0,1,0-15.5,15.5A15.528,15.528,0,0,0,74.4,18.312Zm-1.6,0A13.993,13.993,0,0,1,72.64,20.4a24.1,24.1,0,0,1-6.968,3.379,15.562,15.562,0,0,0,.346-2.049,20.345,20.345,0,0,0-1.325-8.945A20.28,20.28,0,0,0,70.3,10.366,13.925,13.925,0,0,1,72.8,18.312Zm-7.576,3.343a14.346,14.346,0,0,1-.429,2.363,20.108,20.108,0,0,1-11.706-.747c-.1-.036-.195-.076-.294-.114a14.473,14.473,0,0,1-.226-1.5,19.835,19.835,0,0,1,1.507-9.124,21,21,0,0,0,5.858.86,18.929,18.929,0,0,0,3.956-.414A19.541,19.541,0,0,1,65.221,21.655ZM69.64,9.493c.062.075.12.152.18.229A19.509,19.509,0,0,1,64.4,12.034,33.861,33.861,0,0,0,60.09,4.466,13.853,13.853,0,0,1,69.64,9.493ZM58.893,4.41c.046,0,.092,0,.139,0a34.088,34.088,0,0,1,4.559,7.809,19.3,19.3,0,0,1-9.213-.429,34.328,34.328,0,0,1,4.377-7.38C58.8,4.413,58.847,4.41,58.893,4.41Zm-1.2.056a34.137,34.137,0,0,0-4.112,7.083,22.786,22.786,0,0,1-5.128-2.413A13.84,13.84,0,0,1,57.7,4.466ZM44.99,18.312a13.922,13.922,0,0,1,2.951-8.558,23.64,23.64,0,0,0,5.342,2.536,20.635,20.635,0,0,0-1.514,9.443c.036.364.088.722.148,1.077a26.289,26.289,0,0,1-6.922-4.3C44.994,18.443,44.99,18.378,44.99,18.312Zm.063,1.3a26.9,26.9,0,0,0,7.054,4.14,16.305,16.305,0,0,0,5.088,8.358A13.924,13.924,0,0,1,45.053,19.611Zm13.84,12.6c-.123,0-.244-.005-.366-.009a16.1,16.1,0,0,1-5.511-8.116,21.734,21.734,0,0,0,7.163,1.242,20.746,20.746,0,0,0,4.354-.468,16.388,16.388,0,0,1-5.273,7.342C59.137,32.211,59.016,32.216,58.893,32.216Zm1.7-.107a16.552,16.552,0,0,0,4.848-7.461,24.07,24.07,0,0,0,6.981-3.134A13.936,13.936,0,0,1,60.592,32.109Z"/><path class="a" d="M55.9,39.467H51.288a3.335,3.335,0,0,0,0,6.67H66.5a3.335,3.335,0,0,0,0-6.67H61.89V38.7a2.96,2.96,0,0,0-.264-1.223,28.7,28.7,0,0,0,5.459-1.348,1,1,0,1,0-.656-1.889,22.845,22.845,0,0,1-9.307,1.4c-8.575-.7-15.84-8.886-15.866-17.877a17.645,17.645,0,0,1,.472-4.2A15.127,15.127,0,0,1,44.66,7.62a14.616,14.616,0,0,1,5.262-4.151,1,1,0,0,0-.807-1.829,16.435,16.435,0,0,0-6.006,4.718A17.145,17.145,0,0,0,39.785,13.1a19.7,19.7,0,0,0-.529,4.671c.028,9.7,7.672,18.553,16.874,19.774A2.977,2.977,0,0,0,55.9,38.7Zm.8,1.6a.8.8,0,0,0,.8-.8V38.7a1.389,1.389,0,0,1,.444-1.015c.2.006.405.012.609.012.416,0,.837-.017,1.262-.043a1.393,1.393,0,0,1,.48,1.046v1.569a.8.8,0,0,0,.8.8H66.5a1.735,1.735,0,0,1,0,3.471H51.288a1.735,1.735,0,0,1,0-3.471Z"/></g></svg>