<svg xmlns="http://www.w3.org/2000/svg" width="24" height="24" viewBox="0 0 24 24"><defs><style>.a{fill:none;}</style></defs><rect class="a" width="24" height="24"/><g transform="translate(2 3)"><path d="M2,19a2.006,2.006,0,0,0,2,2H20a2.006,2.006,0,0,0,2-2V16H2Zm2-1H20v1H4Z" transform="translate(-2 -3)"/><path d="M18.66,11.5c-1.95,0-2.09,1-3.33,1-1.19,0-1.42-1-3.33-1-1.95,0-2.09,1-3.33,1-1.19,0-1.42-1-3.33-1-1.95,0-2.09,1-3.33,1v2c1.9,0,2.17-1,3.35-1s1.42,1,3.33,1c1.95,0,2.09-1,3.33-1,1.19,0,1.42,1,3.33,1,1.95,0,2.09-1,3.33-1,1.19,0,1.4.98,3.32,1l-.01-1.98C20.38,12.19,20.37,11.5,18.66,11.5Z" transform="translate(-2 -3)"/><path d="M22,9c.02-4-4.28-6-10-6S2,5,2,9v1H22V9ZM4.18,8C5.01,5.81,8.61,5,12,5c3.31,0,5.93.73,7.19,1.99A2.772,2.772,0,0,1,19.84,8Z" transform="translate(-2 -3)"/></g></svg>