<svg xmlns="http://www.w3.org/2000/svg" width="24" height="24" viewBox="0 0 24 24"><defs><style>.a{fill:#fff;}.b{stroke:#000;stroke-width:0.5px;}</style></defs><rect class="a" width="24" height="24"/><g transform="translate(1.746 2.845)"><path class="b" d="M13.708,9.778a.852.852,0,0,1-.251-.6.822.822,0,0,1,.068-.331.885.885,0,0,1,.182-.274.769.769,0,0,1,.285-.182.84.84,0,0,1,.924.182.906.906,0,0,1,.194.274.851.851,0,0,1-1.117,1.117A.951.951,0,0,1,13.708,9.778Zm-2.372-.6a.822.822,0,0,0-.068-.331.906.906,0,0,0-.194-.274.852.852,0,0,0-1.391.274.822.822,0,0,0-.068.331.852.852,0,0,0,.251.6.877.877,0,0,0,.6.251.836.836,0,0,0,.6-.251A.863.863,0,0,0,11.336,9.174Zm-4.025,1.95a.866.866,0,0,0,0,1.22.852.852,0,0,0,.6.251.877.877,0,0,0,.6-.251.866.866,0,0,0,0-1.22A.882.882,0,0,0,7.311,11.124Zm.924,3.66a.888.888,0,0,0-.924.182.866.866,0,0,0,0,1.22.852.852,0,0,0,.6.251.864.864,0,0,0,.6-1.471A.809.809,0,0,0,8.234,14.784Zm3.74,2.965a.882.882,0,0,0-1.209,0,.852.852,0,0,0-.251.6.877.877,0,0,0,.251.6.852.852,0,0,0,1.206,0l0,0a.877.877,0,0,0,.251-.6.822.822,0,0,0-.068-.331A.727.727,0,0,0,11.974,17.749Zm8.8-7.629A12.623,12.623,0,0,1,22.72,13.1a1.206,1.206,0,0,1-.13,1.254,1.187,1.187,0,0,1-1.163.456c-1.86-.332-3.013.095-3.421,1.277a4.162,4.162,0,0,0,1.193,4.5,1.208,1.208,0,0,1,.33,1.168,1.175,1.175,0,0,1-.842.852,11.551,11.551,0,0,1-3.159.436,12.92,12.92,0,0,1-9.524-4.436c-2.893-3.042-3.242-6.956-.888-9.974a8.84,8.84,0,0,1,11.46-1.887c.493.276.962.577,1.428.9a30.468,30.468,0,0,1,2.834-2.909,1.824,1.824,0,0,1,2.509.056,1.789,1.789,0,0,1,.173,2.485A23.465,23.465,0,0,1,20.769,10.12Zm-.865.74q-1.476,1.218-3.3,2.453a3.421,3.421,0,0,1-1.14,2.3,4.365,4.365,0,0,1-2.77.912,3.331,3.331,0,0,1-.353-.015.571.571,0,0,1-.507-.495,3.953,3.953,0,0,1,.774-3.225,3.742,3.742,0,0,1,2.334-1.173c.334-.49,1.179-1.7,2.318-3.092-.407-.276-.819-.539-1.254-.781a7.611,7.611,0,0,0-10,1.6c-1.58,2.026-2.2,5.319.814,8.486,4.726,4.969,9.651,4.236,11.551,3.689a5.616,5.616,0,0,1-1.455-5.793c.6-1.747,2.268-2.468,4.7-2.032l.055-.114A11.593,11.593,0,0,0,19.9,10.857ZM13.47,13.55a2.589,2.589,0,0,0-.537,1.831,3.077,3.077,0,0,0,1.8-.634,2.321,2.321,0,0,0,.751-1.546l-.436-.445a2.606,2.606,0,0,0-1.583.79Zm9.161-6.981a.672.672,0,0,0-.071-.946.684.684,0,0,0-.967-.029h0a39.549,39.549,0,0,0-5.587,6.5l.144.147a40.855,40.855,0,0,0,3.4-2.578l.013-.009a23.351,23.351,0,0,0,3.065-3.089Z" transform="translate(-3.566 -4.266)"/></g></svg>