<svg xmlns="http://www.w3.org/2000/svg" width="48" height="48" viewBox="0 0 48 48"><defs><style>.a{fill:#008fff;}.b{fill:none;}.c{fill:#fff;}</style></defs><g transform="translate(-476 -276)"><g transform="translate(476 276)"><rect class="a" width="48" height="48" rx="24"/><g transform="translate(12 12)"><path class="b" d="M0,0H24V24H0Z"/><path class="c" d="M15,7V19.97l-4.21-1.81L10,17.82l-.79.34L5,19.97V7H15m4-6H8.99A2,2,0,0,0,7,3H17a2.006,2.006,0,0,1,2,2V18l2,1V3A2.006,2.006,0,0,0,19,1ZM15,5H5A2.006,2.006,0,0,0,3,7V23l7-3,7,3V7A2.006,2.006,0,0,0,15,5Z"/></g></g></g></svg>