<svg id="SvgjsSvg1006" width="288" height="288" xmlns="http://www.w3.org/2000/svg" version="1.1" xmlns:xlink="http://www.w3.org/1999/xlink" xmlns:svgjs="http://svgjs.com/svgjs"><defs id="SvgjsDefs1007"></defs><g id="SvgjsG1008" transform="matrix(1,0,0,1,0,0)"><svg xmlns="http://www.w3.org/2000/svg" width="288" height="288" viewBox="0 0 24 24"><path fill="none" d="M0,0H24V24H0Z"></path><path d="M15,7V19.97l-4.21-1.81L10,17.82l-.79.34L5,19.97V7H15m4-6H8.99A2,2,0,0,0,7,3H17a2.006,2.006,0,0,1,2,2V18l2,1V3A2.006,2.006,0,0,0,19,1ZM15,5H5A2.006,2.006,0,0,0,3,7V23l7-3,7,3V7A2.006,2.006,0,0,0,15,5Z" fill="#808080" class="color000 svgShape"></path></svg></g></svg>