<svg xmlns="http://www.w3.org/2000/svg" width="32" height="21" viewBox="0 0 32 21"><defs><style>.a{fill:#3498d8;}.a,.b{fill-rule:evenodd;}.b{fill:#fff;}</style></defs><path class="a" d="M34,9.5H6a2.006,2.006,0,0,0-2,2v17a2.006,2.006,0,0,0,2,2H34a2.006,2.006,0,0,0,2-2v-17A2.006,2.006,0,0,0,34,9.5Z" transform="translate(-4 -9.5)"/><g transform="translate(2.9 7)"><path class="b" d="M10.7,20.3h1.6l-.8-2ZM33,16.5H28.9l-1,1.1L27,16.5H18.3l-.8,1.8-.8-1.8H13.2v.8l-.4-.8h-3l-2.9,7h3.5l.4-1.1h1l.4,1.1h3.9v-.8l.3.8h2l.3-.9v.9h8l1-1.1.9,1.1h4.1L30.1,20Zm-12.1,6H19.8V18.6l-1.7,3.9h-1l-1.7-3.9v3.9H13.1l-.4-1.1H10.3l-.4,1.1H8.6l2.1-5h1.7l1.9,4.7V17.5h1.9l1.5,3.4,1.4-3.4H21v5Zm9.9,0H29.3L28,20.8l-1.5,1.7H22v-5h4.6L28,19.1l1.5-1.6h1.4L28.7,20Zm-7.7-4v.9h2.5v1H23.1v1h2.8l1.3-1.5L26,18.5Z" transform="translate(-6.9 -16.5)"/></g></svg>