<svg xmlns="http://www.w3.org/2000/svg" width="32" height="19.778" viewBox="0 0 32 19.778"><defs><style>.a{fill:#ff5f00;}.b{fill:#eb001b;}.c{fill:#f79e1b;}</style></defs><rect class="a" width="8.653" height="15.55" transform="translate(11.674 2.114)"/><path class="b" d="M349.935,279.889a9.872,9.872,0,0,1,3.777-7.775,9.889,9.889,0,1,0,0,15.55,9.872,9.872,0,0,1-3.777-7.775Z" transform="translate(-337.711 -270)"/><path class="c" d="M411.958,279.889a9.889,9.889,0,0,1-16,7.775,9.89,9.89,0,0,0,0-15.55,9.889,9.889,0,0,1,16,7.775Z" transform="translate(-379.958 -270)"/><path class="c" d="M450.245,327.294v-.318h.128v-.065h-.327v.065h.128v.318Zm.635,0v-.384h-.1l-.115.264-.115-.264h-.1v.384h.071V327l.108.25h.073l.108-.25v.29Z" transform="translate(-419.188 -311.277)"/></svg>