<svg xmlns="http://www.w3.org/2000/svg" width="24" height="24" viewBox="0 0 24 24">
  <g id="Group_24291" data-name="Group 24291" transform="translate(-0.195 -1327)">
    <g id="swimming" transform="translate(0.195 1327)">
      <g id="_5_swimming_pool" data-name="5 swimming pool">
        <path id="Path_68766" data-name="Path 68766" d="M0,0H24V24H0Z" fill="none"/>
        <path id="Path_68767" data-name="Path 68767" d="M10,8,6.75,11.25a5.472,5.472,0,0,1,.77.39A1.8,1.8,0,0,0,8.67,12a1.8,1.8,0,0,0,1.15-.36A3.891,3.891,0,0,1,12.01,11a3.825,3.825,0,0,1,2.18.64,1.877,1.877,0,0,0,1.15.36,1.816,1.816,0,0,0,1.15-.36c.12-.07.26-.15.41-.23L10.48,5C8.93,3.45,7.5,2.99,5,3V5.5A4.921,4.921,0,0,1,9,7Zm12,8.5h0Zm-16.65-1a1.877,1.877,0,0,1,1.15.36,3.825,3.825,0,0,0,2.18.64,3.825,3.825,0,0,0,2.18-.64,1.8,1.8,0,0,1,1.15-.36,1.877,1.877,0,0,1,1.15.36,4.033,4.033,0,0,0,4.36,0,1.8,1.8,0,0,1,1.15-.36,1.877,1.877,0,0,1,1.15.36,3.855,3.855,0,0,0,2.16.64v-2a1.877,1.877,0,0,1-1.15-.36,4.033,4.033,0,0,0-4.36,0,1.816,1.816,0,0,1-1.15.36,1.877,1.877,0,0,1-1.15-.36,3.825,3.825,0,0,0-2.18-.64,3.825,3.825,0,0,0-2.18.64,1.8,1.8,0,0,1-1.15.36,1.877,1.877,0,0,1-1.15-.36,3.825,3.825,0,0,0-2.18-.64,3.825,3.825,0,0,0-2.18.64A1.8,1.8,0,0,1,2,14.5v2a3.958,3.958,0,0,0,2.2-.64,1.816,1.816,0,0,1,1.15-.36ZM18.67,18a3.825,3.825,0,0,0-2.18.64,1.816,1.816,0,0,1-1.15.36,1.877,1.877,0,0,1-1.15-.36A3.825,3.825,0,0,0,12.01,18a3.891,3.891,0,0,0-2.19.64A1.8,1.8,0,0,1,8.67,19a1.8,1.8,0,0,1-1.15-.36A3.825,3.825,0,0,0,5.34,18a3.891,3.891,0,0,0-2.19.64A1.8,1.8,0,0,1,2,19v2a3.891,3.891,0,0,0,2.19-.64A1.816,1.816,0,0,1,5.34,20a1.816,1.816,0,0,1,1.15.36A3.825,3.825,0,0,0,8.67,21a3.891,3.891,0,0,0,2.19-.64A1.8,1.8,0,0,1,12.01,20a1.877,1.877,0,0,1,1.15.36,4.033,4.033,0,0,0,4.36,0A1.8,1.8,0,0,1,18.67,20a1.877,1.877,0,0,1,1.15.36A3.825,3.825,0,0,0,22,21V19a1.8,1.8,0,0,1-1.15-.36A3.825,3.825,0,0,0,18.67,18Z"/>
        <circle id="Ellipse_1" data-name="Ellipse 1" cx="2.5" cy="2.5" r="2.5" transform="translate(14 3)"/>
      </g>
    </g>
  </g>
</svg>
