<svg xmlns="http://www.w3.org/2000/svg" xmlns:xlink="http://www.w3.org/1999/xlink" width="150" height="150" viewBox="0 0 150 150"><defs><style>.a{fill:none;}.b{clip-path:url(#a);}.c{fill:#fce3c3;}.d{fill:#603813;}.e{fill:#f4b9b8;}.f{fill:#f9bfbb;}.g{fill:#ffcfca;}.h{fill:#1e1d59;}.i{fill:#151544;}.j{fill:#363740;}.k{fill:#fff;}.l{fill:#acddd9;}.m{fill:#c69c6d;}.n{fill:#c15252;}.o{fill:#af4646;}.p{fill:#1f3c49;}.q{fill:#d55454;}.r{fill:#f37c7c;}.s{fill:#99a4ce;}</style><clipPath id="a"><circle class="a" cx="75" cy="75" r="75" transform="translate(1485.827 -1758.199)"/></clipPath></defs><g transform="translate(-1485.827 1758.199)"><g class="b"><circle class="c" cx="75" cy="75" r="75" transform="translate(1485.827 -1758.199)"/><ellipse class="d" cx="14.08" cy="17.885" rx="14.08" ry="17.885" transform="translate(1550.095 -1725.53) rotate(-8.856)"/><path class="e" d="M1455.292-1470.389a27.564,27.564,0,0,0,.2,2.884c.278,2.569.654,5.127.912,7.7a11.109,11.109,0,0,1-.024,3.337,4.114,4.114,0,0,1-1.758,2.74,2.562,2.562,0,0,1-3.09-.266,4.217,4.217,0,0,1-.828-2.761l-.218-3.864c-.1-1.74-.2-3.479-.215-5.221-.036-3.537.314-7.248,2.25-10.208.613-.939,3.729-3.482,3.963-.942.091.98-.6,2.144-.811,3.1A15.988,15.988,0,0,0,1455.292-1470.389Z"/><path class="f" d="M1453.417-1468.567a27.582,27.582,0,0,0,.2,2.884c.278,2.569.654,5.127.912,7.7a11.109,11.109,0,0,1-.024,3.337,4.11,4.11,0,0,1-1.757,2.74,2.562,2.562,0,0,1-3.09-.266,4.213,4.213,0,0,1-.829-2.762l-.218-3.864c-.1-1.739-.2-3.479-.214-5.221-.037-3.536.313-7.247,2.249-10.207.614-.939,3.729-3.482,3.964-.943.09.981-.6,2.144-.812,3.1A16.04,16.04,0,0,0,1453.417-1468.567Z"/><path class="g" d="M1469.127-1503.031a38.664,38.664,0,0,0-7.149,1.536c-1.217.4-2.406.791-3.618,1.094.73.691,1.174,1.208,1.149,1.456a6.062,6.062,0,0,1-.884,2.308c-.042.078-.088.152-.13.23a121.356,121.356,0,0,0-7.344,16.275c-1.44,3.769-2.954,7.676-3.367,11.715a89.579,89.579,0,0,0-.008,12.859,5.349,5.349,0,0,0,.33,1.974,1.972,1.972,0,0,0,3.008.825c2.108-1.906,1.934-5.454,1.912-8.06a43.922,43.922,0,0,1,.193-7.291,14.689,14.689,0,0,1,2.805-6.292c.993-1.4,1.925-2.823,2.953-4.2a13.979,13.979,0,0,1,1.275-1.53,4.736,4.736,0,0,1,2.223-1.359,3.193,3.193,0,0,1,2.478.351c.664.547.426,1.517.337,2.252a10.811,10.811,0,0,1-.7,2.525,16.05,16.05,0,0,0-1.33,4.32,5.2,5.2,0,0,0-.016.768c.147,2.759,3.188,5.824,5.27,2.625a10.759,10.759,0,0,0,.993-2.241c1.339-3.673,3.447-7.072,4.106-10.946a68.1,68.1,0,0,0,.71-7.464c.495-8.578-.257-10.617-1.355-14.142C1471.684-1503.325,1470.4-1503.194,1469.127-1503.031Z"/><path class="f" d="M1460.252-1480.134a16.91,16.91,0,0,1,.935-1.489,5.875,5.875,0,0,1,2.284-2.087,2.7,2.7,0,0,1,2.925.353,3.124,3.124,0,0,1,.76,2.433c-.12,2.144-1.373,4.033-2.47,5.882a14.332,14.332,0,0,0-1.429,3,16.05,16.05,0,0,1,1.33-4.32,10.811,10.811,0,0,0,.7-2.525c.089-.735.327-1.7-.337-2.252a3.193,3.193,0,0,0-2.478-.351A4.736,4.736,0,0,0,1460.252-1480.134Z"/><path class="g" d="M1501.352-1222.459l.381-33.867,25.876-.761-4.518,36.96-16.922,8.3Z"/><path class="h" d="M1570.906-1541.586s-5.053,41.235-9.11,67.758c-.947,6.18-1.841,11.56-2.6,15.438-2.561,13.033-5.53,32.147-8.566,53.754-9.841,70.022-20.431,166.194-20.431,166.194h-33.354s-4.231-181.431,4.019-243.541c1.746-13.136,5.742-59.6,5.742-59.6Z"/><path class="i" d="M1561.8-1473.828c-.947,6.18-1.841,11.56-2.6,15.438-2.561,13.033-5.53,32.147-8.566,53.754-6.207-7.565-10.081-18.277-10.081-30.161C1540.547-1452.766,1549.406-1468.067,1561.8-1473.828Z"/><path class="h" d="M1602.859-1541.727s4,46.468,5.743,59.6c8.25,62.113-4.865,243.3-4.865,243.3l-32.952,1.522s-11.381-166.581-22.246-221.851c-4.034-20.516-9.981-82.576-9.981-82.576Z"/><path class="j" d="M1481.2-1504.747a62.536,62.536,0,0,1-1.609,6.88c-.111.362-.225.727-.343,1.085a23.268,23.268,0,0,1-1.316,3.223,9.6,9.6,0,0,1-.586,1,3.844,3.844,0,0,1-1.553,1.484c-2.6,1.1-17.059-5.746-17.813-7.432a5.78,5.78,0,0,1-.327-2.45c.015-.4.049-.83.1-1.275a30.923,30.923,0,0,1,.643-3.474c.091-.4.19-.788.293-1.176.886-3.368,2.009-6.355,2.009-6.355Z"/><path class="k" d="M1479.59-1497.867c-.111.362-.225.727-.343,1.085q-1.056-.332-2.108-.681a109.959,109.959,0,0,1-11.823-4.6c-1.922-.891-3.805-1.853-5.64-2.907-.418-.24-.852-.484-1.278-.742.091-.4.19-.788.293-1.176.852.54,1.739,1.039,2.626,1.526A100.335,100.335,0,0,0,1479.59-1497.867Z"/><path class="k" d="M1477.931-1493.559a9.6,9.6,0,0,1-.586,1c-.487-.152-.971-.308-1.454-.464-6.3-2.048-12.63-4.4-18.239-7.934.015-.4.049-.83.1-1.275.483.312.97.616,1.465.909a68.588,68.588,0,0,0,11.705,5.4C1473.242-1495.085,1475.583-1494.305,1477.931-1493.559Z"/><path d="M1542.45-1667.683l28.159,1.142-8.048,16.665-17.448-.7Z"/><path class="g" d="M1689.828-1600.821a5.3,5.3,0,0,0-1.872.235,11.56,11.56,0,0,0-1.886,1.9c-1.566,1.578-3.173,3.12-4.728,4.712-.43.44-.849.888-1.269,1.334q-5.382-6.093-10.617-12.317c3.819-2.9,6.736-5.087,8.051-6.009l1.906-1.335a27.724,27.724,0,0,1,.907-5.215c.584-2.1,1.7-3.811,2.476-5.814,1.348-3.461,2.009-7.228,3.113-10.786a7.614,7.614,0,0,1,1.534-3.086c.028-.03.06-.059.088-.089a2.7,2.7,0,0,1,3.068-.619,2.846,2.846,0,0,1,1.258,2.161,15.191,15.191,0,0,1-.448,4.635,14.987,14.987,0,0,0-.487,2.93c0,1.483.938.544,1.63-.167a20.344,20.344,0,0,0,2.034-2.537c1.219-1.765,2.239-3.66,3.386-5.474,0,0,7.772-12.277,7.786-12.292a2.276,2.276,0,0,1,3.6-.033c1.122,1.595-.692,3.554-1.406,4.918q-1.791,3.418-3.554,6.852-1.26,2.463-2.508,4.936c-.484.957-1.348,1.772-1.86,2.75-.188.363-.784,1.331-.363,1.736.436.415,1.1-.411,1.413-.673.762-.637,1.5-1.3,2.228-1.98,1.4-1.313,2.75-2.685,4.089-4.066a98.358,98.358,0,0,1,8.493-8.119,2.742,2.742,0,0,1,.387-.262,2.215,2.215,0,0,1,3.189.3c1.366,1.86-1.227,3.932-2.314,5.2-1.761,2.039-3.6,4.013-5.362,6.052q-1.974,2.28-3.954,4.563c-.462.53-3.142,2.5-2.479,3.407.575.8,2.5-1.085,3-1.372q1.788-1.034,3.56-2.1,3.548-2.133,6.981-4.437a2.249,2.249,0,0,1,.656-.307q.946-.687,1.891-1.391a2.12,2.12,0,0,1,3.222,1.129c.574,1.938-1.77,3.015-3.024,3.932q-3,2.186-6.043,4.3-2.15,1.5-4.322,2.965c-.771.521-4.325,2.532-2.706,3.7.317.229,1.093-.053,1.416-.137a24.17,24.17,0,0,0,2.962-1.129q3.953-1.55,7.95-2.987a2.16,2.16,0,0,1,2.814,2.332c-.34,2.262-4.324,2.788-6.046,3.386q-4.117,1.427-8.117,3.154a6.253,6.253,0,0,0-1.308.7,8,8,0,0,0-1.3,1.411,26.4,26.4,0,0,1-15.028,8.76C1691.229-1601.009,1690.528-1600.9,1689.828-1600.821Z"/><path class="l" d="M1503.035-1497.61c8.88,6.7,106.012,5.84,105.946,1.074-.161-11.617-1.953-24.169-3.618-36.452-.944-6.944-1.847-13.8-2.389-20.355-1.282-15.442-5.617-64.091-6.227-72.7-.394-5.611-1.378-18.338-1.494-19.853q-1.071-.753-2.182-1.441l-.068-.041c-.545-.323-1.17-.689-1.845-1.077-.006-.006-.009-.009-.015-.009-2.895-1.686-6.695-3.833-9.208-5.024a67.351,67.351,0,0,0-19.535-5.787c-11.306-1.627-22.514.337-30.745,2.635a86.477,86.477,0,0,0-12.905,4.641l-.046.023s4.707,2.016,5.969,9.769c5.37,32.98-10.834,59.231-10.834,59.231s-4.1,28.709-6.474,43.349C1505.857-1530.328,1501.793-1498.546,1503.035-1497.61Z"/><path class="g" d="M1541.979-1683.25q.462,2.561.915,5.122c.021.1.037.207.054.309.009.047.018.091.026.139.405,2.263.807,4.522,1.084,6.8.116.911.207,1.83.271,2.75.075,1.027.115,2.061.125,3.092.03,1.973-.024,3.948-.085,5.919-.034,1.114-.05,2.227-.058,3.34-.009,1.289-.557,2.681-.032,3.932.664,1.583,2.182,2.4,3.52,3.332a21.4,21.4,0,0,0,4.705,2.463,16.172,16.172,0,0,0,10.308.64c6.447-1.98,4.739-9.068,4.716-14.2l-.006-1.42-.01-3.758-.02-5.349a26.9,26.9,0,0,1-5.279-2.12c-5.673-2.775-11.308-5.619-16.833-8.68-.149-.081-.291-.161-.43-.238A12.844,12.844,0,0,1,1541.979-1683.25Z"/><path class="f" d="M1567.528-1659.616a64.616,64.616,0,0,1-18.1-7.7c-1.774-1.108-3.614-2.294-5.365-3.572-.276-2.275-.68-4.533-1.083-6.795q-.5-2.784-.995-5.572a14.386,14.386,0,0,0,3.4,2.307c5.523,3.059,11.16,5.906,16.833,8.678a26.67,26.67,0,0,0,5.28,2.121Z"/><path class="g" d="M1545.369-1681.855a10.29,10.29,0,0,1-10.131.852,10.123,10.123,0,0,1-5.4-6.823,9.494,9.494,0,0,1-.219-1.619,7.329,7.329,0,0,1,.387-2.829,6.311,6.311,0,0,1,5.433-3.944,7.292,7.292,0,0,1,6.151,2.938l1.451,4.394Z"/><path class="g" d="M1597.456-1222.451l1-26.545-22.9,1,.332,27.872,16.922,8.3Z"/><path class="m" d="M1569.039-1208.867c.606-2.425,1.953-4.551,2.974-6.8.326-.712,3.1-7.391,3.526-7.36l.544.078,17.19,2.494,4.189-5.78.584-.8,8.87,4.476q8.826,4.453,17.657,8.91,6.545,3.3,13.087,6.6a4.079,4.079,0,0,1,2.145,2.775,4.089,4.089,0,0,1-2.762,4.029,68.9,68.9,0,0,1-11.563,1.176c-7.021.274-13.353-.056-20.372-.01-6.982.04-13.508-.274-20.355-.674-2.708-.154-5.465-.326-8.32-.49l-.418-.026c-1.87-.11-4.625-.407-6.06-1.716C1568.11-1203.672,1568.492-1206.676,1569.039-1208.867Z"/><path class="m" d="M1529.941-1208.867c-.606-2.425-1.953-4.551-2.975-6.8-.326-.712-3.095-7.391-3.525-7.36l-.544.078-17.19,2.494-4.189-5.78-.584-.8-8.87,4.476q-8.826,4.453-17.657,8.91-6.545,3.3-13.087,6.6a4.077,4.077,0,0,0-2.145,2.775,4.089,4.089,0,0,0,2.762,4.029,68.89,68.89,0,0,0,11.562,1.176c7.022.274,13.354-.056,20.372-.01,6.982.04,13.509-.274,20.356-.674,2.708-.154,5.465-.326,8.32-.49l.418-.026c1.87-.11,4.625-.407,6.06-1.716C1530.87-1203.672,1530.488-1206.676,1529.941-1208.867Z"/><path class="j" d="M1546.061-1485.347a59.051,59.051,0,0,1-.943,7.736c-.077.377-.156.746-.248,1.1a14.706,14.706,0,0,1-.833,2.545,5.565,5.565,0,0,1-.594,1.032,2.568,2.568,0,0,1-.449.475c-1.278,1.016-17.531-2.45-26.017-5.7-7.694-2.942-19.8-7.5-20.282-9.715a6.5,6.5,0,0,1-.095-1.659c.015-.392.053-.818.106-1.26v0c.091-.776.236-1.613.407-2.466.076-.388.16-.783.251-1.175.807-3.6,1.964-7.12,1.964-7.12Z"/><path class="k" d="M1544.037-1473.962a5.565,5.565,0,0,1-.594,1.032q-3.671-.834-7.31-1.781a249.359,249.359,0,0,1-25.4-8.159,75.49,75.49,0,0,1-12.032-5.43c-.7-.415-1.4-.822-2.1-1.225.015-.392.053-.818.106-1.26,1.408.811,2.789,1.659,4.213,2.455a85.89,85.89,0,0,0,11.983,5.057q6.131,2.271,12.363,4.243C1531.449-1477.086,1537.712-1475.381,1544.037-1473.962Z"/><path class="k" d="M1545.118-1477.611c-.077.377-.156.746-.248,1.1q-4.2-.92-8.356-2.009a249.525,249.525,0,0,1-25.4-8.159,75.51,75.51,0,0,1-12.033-5.43q-.981-.582-1.971-1.15c.076-.388.16-.783.251-1.175,1.313.764,2.607,1.552,3.935,2.294a85.822,85.822,0,0,0,11.983,5.057q6.131,2.273,12.364,4.243Q1535.264-1479.81,1545.118-1477.611Z"/><path class="n" d="M1546.255-1480.842c-3.044,4.567-34.468-9-44.9-13.318-7.9-3.269-5.034-7.965-4.185-14.08,2.5-18.018,5.521-33.533,8.5-50.12,1.134-6.328,2.264-12.813,3.356-19.647.046-.282.088-.559.133-.841-1.331,4.4-3.752,13.429-4.756,16.572-5.708,17.885-14.841,60.125-24.354,61.647-1.641.262-19.739-6.1-20.549-8.372-5.708-15.982,11.987-74.569,14.841-81.815,4.946-12.557,20.575-44.884,24.734-50.23,7.991-10.274,33.917-16.31,35.2-16.667q5.6-1.593,11.3-2.862c3.756,8.912,4.681,17.68,5.64,27.3C1556.32-1581.938,1548.649-1484.434,1546.255-1480.842Z"/><path class="j" d="M1554.627-1649.418l-.278,1.45-.278,1.477-.464,2.432-.274,1.454-.765,4.011-.266,1.4-.974,5.122-15.727-26.1,1.092-1.518.75-1.043,1.317-1.827.746-1.035,1.123-1.556.734-1.024,1.088-1.511Z"/><path class="k" d="M1554.349-1647.968l-.277,1.477q-3.7-4.7-7.242-9.518a76.365,76.365,0,0,1-6.2-9.14l.735-1.024a39.472,39.472,0,0,0,3.025,4.848Q1549.215-1654.532,1554.349-1647.968Z"/><path class="k" d="M1553.607-1644.06l-.274,1.454c-2.8-3.311-5.559-6.667-8.177-10.122a70.623,70.623,0,0,1-6.4-9.83l.746-1.035a55.215,55.215,0,0,0,2.793,4.837,130.551,130.551,0,0,0,9.213,12.173Q1552.549-1645.316,1553.607-1644.06Z"/><path class="k" d="M1552.568-1638.595l-.266,1.4a101.068,101.068,0,0,1-8.988-11.317q-2.4-3.516-4.5-7.23-1.062-1.874-2.036-3.787c-.026-.053-.057-.11-.083-.163l.749-1.043c.194.377.385.757.579,1.134q1.1,2.129,2.3,4.2a99.179,99.179,0,0,0,9.666,13.833Q1551.247-1640.055,1552.568-1638.595Z"/><path class="o" d="M1511.627-1570.267a79.567,79.567,0,0,1-5.963,11.907c1.134-6.328,2.264-12.813,3.356-19.647.7-1.572,7.466-17.181,9.456-33.357C1519.238-1591.577,1515.052-1578.639,1511.627-1570.267Z"/><path class="j" d="M1679.343-1590.681a59.823,59.823,0,0,0,5.86-3.343c.3-.2.6-.4.9-.608a22.229,22.229,0,0,0,2.593-2.08,8.959,8.959,0,0,0,.753-.808,3.667,3.667,0,0,0,.936-1.824c.3-2.679-9.894-14.052-11.641-14.284a5.515,5.515,0,0,0-2.332.366c-.365.124-.746.271-1.139.441a29.74,29.74,0,0,0-3.005,1.532c-.337.191-.669.388-1,.588-2.841,1.726-5.27,3.565-5.27,3.565Z"/><path class="k" d="M1685.2-1594.024c.3-.2.6-.4.9-.608q-.59-.876-1.2-1.744a104.826,104.826,0,0,0-7.419-9.572c-1.338-1.517-2.73-2.98-4.194-4.372-.333-.318-.673-.649-1.026-.969-.337.191-.669.388-1,.588.727.633,1.424,1.309,2.11,1.988A95.837,95.837,0,0,1,1685.2-1594.024Z"/><path class="k" d="M1688.695-1596.712a8.959,8.959,0,0,0,.753-.808c-.272-.4-.546-.8-.82-1.2-3.585-5.208-7.458-10.364-12.217-14.538-.365.124-.746.271-1.139.441.417.357.828.72,1.231,1.094a65.494,65.494,0,0,1,8.118,9.247C1686.024-1600.589,1687.374-1598.659,1688.695-1596.712Z"/><path class="j" d="M1566.538-1485.347a58.94,58.94,0,0,0,.944,7.736c.076.377.156.746.247,1.1a14.706,14.706,0,0,0,.833,2.545,5.565,5.565,0,0,0,.594,1.032,2.568,2.568,0,0,0,.449.475c1.278,1.016,17.531-2.45,26.017-5.7,7.694-2.942,19.8-7.5,20.282-9.715a6.542,6.542,0,0,0,.1-1.659c-.016-.392-.054-.818-.107-1.26v0c-.091-.776-.236-1.613-.407-2.466-.076-.388-.16-.783-.251-1.175-.807-3.6-1.964-7.12-1.964-7.12Z"/><path class="k" d="M1568.562-1473.962a5.565,5.565,0,0,0,.594,1.032q3.671-.834,7.31-1.781a249.281,249.281,0,0,0,25.4-8.159,75.49,75.49,0,0,0,12.032-5.43c.7-.415,1.4-.822,2.1-1.225-.016-.392-.054-.818-.107-1.26-1.408.811-2.789,1.659-4.213,2.455a85.84,85.84,0,0,1-11.983,5.057q-6.129,2.271-12.363,4.243C1581.15-1477.086,1574.887-1475.381,1568.562-1473.962Z"/><path class="k" d="M1567.482-1477.611c.076.377.156.746.247,1.1q4.2-.92,8.356-2.009a249.446,249.446,0,0,0,25.4-8.159,75.51,75.51,0,0,0,12.033-5.43q.981-.582,1.971-1.15c-.076-.388-.16-.783-.251-1.175-1.313.764-2.607,1.552-3.935,2.294a85.822,85.822,0,0,1-11.983,5.057q-6.131,2.273-12.364,4.243Q1577.335-1479.81,1567.482-1477.611Z"/><path class="n" d="M1683.628-1591.577c-6.945,9.723-58.142,65.071-73.824,32.726-.228-.472-.509-1.187-.829-2.078-1.694-4.7-4.411-14.224-5.529-17.919.045.282.087.559.133.841.087.556.179,1.107.266,1.659,1.009,6.23,2.048,12.173,3.09,17.988,2.976,16.587,6,32.1,8.5,50.12.848,6.115,3.717,10.811-4.186,14.08-10.435,4.315-41.859,17.885-44.9,13.318-1.519-2.275-.282-42.8-1.442-84.858-.67-24.309-5.385-48.773-3.513-67.576.959-9.619,1.884-18.387,5.64-27.3q5.691,1.267,11.3,2.862c1.282.357,27.208,6.393,35.2,16.667,4.159,5.346,22.151,49.85,22.151,49.85a187.771,187.771,0,0,1,33.867-19.407C1672.212-1611.745,1685.531-1594.24,1683.628-1591.577Z"/><path class="j" d="M1557.972-1649.418l.278,1.45.278,1.477.464,2.432.274,1.454.765,4.011.266,1.4.974,5.122,15.727-26.1-1.092-1.518-.75-1.043-1.317-1.827-.746-1.035-1.123-1.556-.734-1.024-1.088-1.511Z"/><path class="k" d="M1558.25-1647.968l.278,1.477q3.7-4.7,7.241-9.518a76.365,76.365,0,0,0,6.2-9.14l-.735-1.024a39.488,39.488,0,0,1-3.025,4.848Q1563.384-1654.532,1558.25-1647.968Z"/><path class="k" d="M1558.992-1644.06l.274,1.454c2.8-3.311,5.559-6.667,8.177-10.122a70.534,70.534,0,0,0,6.4-9.83l-.746-1.035a55.215,55.215,0,0,1-2.793,4.837,130.712,130.712,0,0,1-9.212,12.173Q1560.049-1645.316,1558.992-1644.06Z"/><path class="k" d="M1560.031-1638.595l.266,1.4a101.068,101.068,0,0,0,8.988-11.317q2.4-3.516,4.5-7.23,1.062-1.874,2.036-3.787c.026-.053.057-.11.084-.163l-.75-1.043c-.194.377-.384.757-.579,1.134q-1.1,2.129-2.3,4.2a99.255,99.255,0,0,1-9.665,13.833Q1561.354-1640.055,1560.031-1638.595Z"/><path class="g" d="M1578.467-1676.691c-1.407,3.434-3.357,6.558-6.553,8.568a16.8,16.8,0,0,1-9.587,2.508,21.37,21.37,0,0,1-10.4-3.431,27.261,27.261,0,0,1-4.359-3.423,37.922,37.922,0,0,1-5.954-7.555,47.093,47.093,0,0,1-6.026-14.777,29.524,29.524,0,0,1,1.343-17.759,22.7,22.7,0,0,1,4.034-6.342,21.358,21.358,0,0,1,28-3.129,27.152,27.152,0,0,1,9.7,13.227,50.276,50.276,0,0,1,1.465,5.066C1582.207-1694.825,1581.929-1685.153,1578.467-1676.691Z"/><path class="p" d="M1560.5-1692.582c-.465.024-1.108-.716-1.285-1.816a2.9,2.9,0,0,1,.155-1.59c.067-.149.252-.5.537-.547a.336.336,0,0,1,.044,0c.466-.024,1.107.716,1.285,1.816a2.9,2.9,0,0,1-.155,1.59c-.067.149-.252.5-.537.547Z"/><path class="p" d="M1574.451-1693.935c-.393.02-1.052-.638-1.232-1.755a2.8,2.8,0,0,1,.15-1.54c.134-.3.319-.491.508-.521a.263.263,0,0,1,.041-.005c.393-.02,1.052.638,1.232,1.755a2.81,2.81,0,0,1-.15,1.54c-.134.3-.32.491-.508.522l-.041,0Z"/><path class="p" d="M1567.449-1691.4a1.721,1.721,0,0,1,1.563-.466,2.012,2.012,0,0,1,1.413,1.063,2.008,2.008,0,0,1,.065,1.767,1.715,1.715,0,0,1-1.278,1.015,2.351,2.351,0,0,0,.667-1.222,1.806,1.806,0,0,0-.181-1.18,1.791,1.791,0,0,0-.864-.825A2.349,2.349,0,0,0,1567.449-1691.4Z"/><path class="p" d="M1560.929-1702.625a5.625,5.625,0,0,0-2.151-.555,5.587,5.587,0,0,0-2.292.355,1.086,1.086,0,0,0-.622,1.4,1.091,1.091,0,0,0,.61.618,1.1,1.1,0,0,0,.344.076,1.085,1.085,0,0,0,.448-.071,3.407,3.407,0,0,1,1.4-.216,3.376,3.376,0,0,1,1.308.338,1.079,1.079,0,0,0,.42.11,1.084,1.084,0,0,0,1.031-.6A1.086,1.086,0,0,0,1560.929-1702.625Z"/><path class="p" d="M1574.247-1704.883a4.976,4.976,0,0,0-.774-.1,5.248,5.248,0,0,0-3.234.9,1.087,1.087,0,0,0-.282,1.509,1.081,1.081,0,0,0,.62.435,1.055,1.055,0,0,0,.217.034,1.088,1.088,0,0,0,.671-.188,3.1,3.1,0,0,1,1.887-.519,2.934,2.934,0,0,1,.444.058,1.058,1.058,0,0,0,.167.022,1.078,1.078,0,0,0,1.119-.857A1.093,1.093,0,0,0,1574.247-1704.883Z"/><path class="k" d="M1560.23-1695.816a.54.54,0,0,0-.219,1.057A.54.54,0,0,0,1560.23-1695.816Z"/><path class="k" d="M1574.4-1697.182a.54.54,0,0,0-.219,1.057A.54.54,0,0,0,1574.4-1697.182Z"/><path class="q" d="M1575.914-1686.043a9.742,9.742,0,0,1-.882,5.207,7.6,7.6,0,0,1-6.018,4.466,7.623,7.623,0,0,1-6.9-3.323,9.734,9.734,0,0,1-1.8-4.77c-.007-.065,0-.13-.012-.2l15.582-1.578C1575.892-1686.172,1575.908-1686.108,1575.914-1686.043Z"/><path class="k" d="M1575.253-1686.177a9.87,9.87,0,0,1-6.853,3.741,9.865,9.865,0,0,1-7.464-2.291Z"/><path class="r" d="M1575.032-1680.836a7.6,7.6,0,0,1-6.018,4.466,7.623,7.623,0,0,1-6.9-3.323,28.559,28.559,0,0,1,8.065-1.417A28.788,28.788,0,0,1,1575.032-1680.836Z"/><path class="f" d="M1559.627-1688.3c.094,1.774-1.781,3.315-4.189,3.443s-4.436-1.206-4.53-2.979,1.781-3.315,4.189-3.443S1559.533-1690.069,1559.627-1688.3Z"/><path class="f" d="M1579.93-1691.179c.063,1.2-1.2,2.238-2.829,2.324s-3-.814-3.059-2.011,1.2-2.239,2.828-2.325S1579.866-1692.377,1579.93-1691.179Z"/><path class="o" d="M1608.975-1560.929c-1.694-4.7-4.411-14.224-5.529-17.919.045.282.087.559.133.841.087.556.179,1.107.266,1.659l-.51-2.671-2.762-41.33s8.7,39.005,8.824,52.255C1609.409-1566.747,1609.207-1563.832,1608.975-1560.929Z"/><path class="s" d="M1494.5-1253.283v15.946l37.673.8,1.522-15.946Z"/><path class="s" d="M1567.946-1251.575l.776,15.8,37.219-.854,1.581-16.651Z"/><path class="d" d="M1534.165-1717.213a9.088,9.088,0,0,1,1.976-7.918,11.525,11.525,0,0,1,6.966-3.736,21.965,21.965,0,0,1,7.9.384c2.511.508,5.026,1.239,7.573,1.086a11.629,11.629,0,0,0,8.213-4.307c1.951-2.4,6.146-2.045,8.684-.371s5.039,4.613,5.562,7.77c.5,3.027.217,8.07-4.519,10.844-5.582,3.269-23.136,2.111-25.507,2.052s-4.918.561-6.482,2.472c-3.107,3.8-3.713,9.514-3.934,14.585a10.758,10.758,0,0,0-5.646-1.458,4.7,4.7,0,0,0-3.012.882,47.48,47.48,0,0,1-4.009-12.093,19.419,19.419,0,0,1-.49-6.387,5.416,5.416,0,0,1,.725-2.3,3.949,3.949,0,0,1,2.928-1.673A7.1,7.1,0,0,1,1534.165-1717.213Z"/></g></g></svg>