<svg id="SvgjsSvg1001" width="288" height="288" xmlns="http://www.w3.org/2000/svg" version="1.1" xmlns:xlink="http://www.w3.org/1999/xlink" xmlns:svgjs="http://svgjs.com/svgjs"><defs id="SvgjsDefs1002"></defs><g id="SvgjsG1008" transform="matrix(1,0,0,1,0,0)"><svg xmlns="http://www.w3.org/2000/svg" width="288" height="288" viewBox="0 0 24 24"><path fill="none" d="M0,0H24V24H0Z"></path><path d="M19.5,3.5,18,2,16.5,3.5,15,2,13.5,3.5,12,2,10.5,3.5,9,2,7.5,3.5,6,2,4.5,3.5,3,2V22l1.5-1.5L6,22l1.5-1.5L9,22l1.5-1.5L12,22l1.5-1.5L15,22l1.5-1.5L18,22l1.5-1.5L21,22V2ZM19,19.09H5V4.91H19ZM6,15H18v2H6Zm0-4H18v2H6ZM6,7H18V9H6Z" fill="#008fff" class="color000 svgShape"></path></svg></g></svg>