<svg id="Layer_1" data-name="Layer 1" xmlns="http://www.w3.org/2000/svg" viewBox="0 0 54.11 44.69"><defs><style>.cls-1{fill:none;}.cls-2{fill:#118ab2;}</style></defs><path class="cls-1" d="M35.81-2.4h24v24h-24Z" transform="translate(-5.69 2.4)"/><path class="cls-2" d="M42.26,14.45V9.78A4.08,4.08,0,0,0,38.2,5.72H9.76A4.08,4.08,0,0,0,5.69,9.78V38.22a4.08,4.08,0,0,0,4.07,4.06H38.2a4.08,4.08,0,0,0,4.06-4.06V33.55a4.2,4.2,0,0,0,2-3.46V17.91A3.93,3.93,0,0,0,42.26,14.45Zm-2,3.46V30.09H26V17.91ZM9.76,38.22V9.78H38.2v4.06H26a4.08,4.08,0,0,0-4.07,4.07V30.09A4.08,4.08,0,0,0,26,34.16H38.2v4.06Z" transform="translate(-5.69 2.4)"/><circle class="cls-2" cx="26.41" cy="26.4" r="3.05"/></svg>